:SAMPLES-PER-SECOND 30
:FRAME-RANGE 1-1770
:FULLY-SPECIFIED
:DEGREES
886
root  48.541 38.0826 31.3154 -175.763 5.293 -178.357
RightUpLeg  -9.07682 1.15282 -1.15006
RightLeg  29.0929 -4.50997 -2.94676
RightFoot  -22.1656 0.611571 8.03305
RightToes  -1.33073e-015 0 -3.6325e-017
Spine  -1.53393 3.3054 8.39125
Spine1  6.36934 4.07471 -4.25317
HEad  9.53165 23.3539 -6.45121
LeftShoulder1  1.36151 -2.55585 -16.7806
LeftArm  -13.6161 -18.9852 -40.1491
LeftForeArm  73.721 -69.4265 -21.4634
LeftHand  1.04751 11.1243 21.2505
RightShoulder  2.02417 5.97856 15.0963
RightArm  12.191 40.8759 70.6807
RightForeArm  59.6278 48.8284 8.56412
RightHand  1.50503 -10.0615 -35.9212
LeftUpLeg  -34.7284 0.489188 6.81288
LeftLeg  31.7571 1.78936 1.54675
LeftFoot  -5.87861 0.331254 -6.20159
LeftToes  1.09107e-011 -1.16422e-010 2.98337e-011
887
root  48.5273 37.7961 30.4207 -174.993 3.88972 -178.57
RightUpLeg  -8.80382 0.66568 -1.34647
RightLeg  30.5724 -5.14707 -3.5138
RightFoot  -24.3934 0.835255 8.73666
RightToes  -1.33073e-015 0 -3.6325e-017
Spine  -1.09913 3.79404 7.92929
Spine1  6.20433 4.58732 -4.38058
HEad  8.01626 22.4179 -6.97901
LeftShoulder1  1.41463 -2.84967 -16.5142
LeftArm  -15.6997 -21.852 -40.2423
LeftForeArm  75.2667 -69.709 -21.6821
LeftHand  1.1067 11.7214 20.3762
RightShoulder  1.98989 6.25735 14.005
RightArm  11.3108 43.9289 70.8357
RightForeArm  60.7393 47.6029 8.069
RightHand  1.1513 -8.63759 -39.1156
LeftUpLeg  -36.9923 0.190721 7.01333
LeftLeg  26.7938 2.39095 1.65386
LeftFoot  -4.70075 0.39003 -6.2339
LeftToes  1.09107e-011 -1.16422e-010 2.98337e-011
888
root  48.4489 37.39 29.4896 -174.258 2.46887 -178.864
RightUpLeg  -8.72402 -0.578701 -1.83007
RightLeg  32.7659 -5.03268 -3.72451
RightFoot  -27.0902 1.11297 9.36269
RightToes  -1.33073e-015 0 -3.6325e-017
Spine  -0.423019 4.25241 7.68025
Spine1  5.94294 5.184 -4.90534
HEad  5.91944 21.2299 -7.22038
LeftShoulder1  1.4298 -3.00032 -16.1784
LeftArm  -17.3994 -24.2491 -40.8563
LeftForeArm  75.4601 -69.4407 -21.2922
LeftHand  1.10357 12.0469 19.3875
RightShoulder  1.93576 6.40289 13.0454
RightArm  6.52048 45.5013 70.921
RightForeArm  67.0074 47.1265 7.59419
RightHand  0.984747 -7.96602 -41.7473
LeftUpLeg  -39.7412 -0.204099 6.7934
LeftLeg  24.5574 2.44126 1.55714
LeftFoot  -3.95635 0.442691 -6.48838
LeftToes  1.09107e-011 -1.16422e-010 2.98337e-011
889
root  48.3007 36.9088 28.4791 -173.66 0.882141 -178.755
RightUpLeg  -8.31455 -1.22214 -1.78837
RightLeg  35.101 -5.52193 -4.41
RightFoot  -29.7229 1.48417 10.4014
RightToes  -1.33073e-015 0 -3.6325e-017
Spine  0.122882 4.55519 8.10468
Spine1  6.08938 5.65446 -5.61892
HEad  2.98454 20.0495 -7.65394
LeftShoulder1  1.37082 -2.74613 -16.1533
LeftArm  -18.4795 -25.8699 -41.1822
LeftForeArm  83.0328 -71.0625 -22.8487
LeftHand  1.20728 12.2677 20.4342
RightShoulder  1.97158 6.43354 13.3836
RightArm  1.50208 45.8866 66.9905
RightForeArm  73.2001 52.9844 9.46601
RightHand  0.459504 -6.42252 -46.7519
LeftUpLeg  -42.7127 -0.567346 6.51769
LeftLeg  25.2478 2.29787 1.52205
LeftFoot  -3.76238 0.502767 -7.2445
LeftToes  1.09107e-011 -1.16422e-010 2.98337e-011
890
root  48.0968 36.353 27.3925 -173.002 -0.626862 -178.449
RightUpLeg  -7.74189 -2.46495 -1.77078
RightLeg  37.3047 -5.25364 -4.54373
RightFoot  -32.4482 1.90735 11.3964
RightToes  -1.33073e-015 0 -3.6325e-017
Spine  0.277783 4.64666 8.46018
Spine1  6.62944 5.85545 -6.14048
HEad  -0.914803 19.5306 -8.44218
LeftShoulder1  1.23486 -1.98791 -16.8865
LeftArm  -20.6493 -24.3597 -39.494
LeftForeArm  115.871 -80.6628 -54.7737
LeftHand  1.30663 13.5713 18.6695
RightShoulder  1.96453 5.91626 14.5454
RightArm  -3.44781 45.0448 61.8669
RightForeArm  78.3408 65.0121 16.2663
RightHand  0.733499 -7.11209 -45.6086
LeftUpLeg  -45.7947 -0.779084 5.95724
LeftLeg  28.2003 2.203 1.62726
LeftFoot  -4.57017 0.448269 -7.10909
LeftToes  1.09107e-011 -1.16422e-010 2.98337e-011
891
root  47.8631 35.8168 26.2553 -172.467 -1.50948 -178.165
RightUpLeg  -6.57226 -3.41423 -1.95783
RightLeg  38.6161 -4.77973 -4.35087
RightFoot  -34.9743 2.29537 12.0791
RightToes  -1.33073e-015 0 -3.6325e-017
Spine  -0.0620852 4.74657 8.12599
Spine1  7.29811 5.93549 -6.06541
HEad  -4.35235 19.7447 -8.62616
LeftShoulder1  0.955621 -0.717097 -17.3454
LeftArm  -22.6537 -22.4789 -36.7563
LeftForeArm  171.056 -81.447 -114.716
LeftHand  1.37383 13.6801 19.3185
RightShoulder  1.93772 5.63433 14.9503
RightArm  -7.76307 44.1147 56.7307
RightForeArm  86.4204 73.3813 26.6562
RightHand  0.835269 -7.32113 -46.301
LeftUpLeg  -48.2156 -0.606418 5.13145
LeftLeg  32.2726 2.26155 1.89777
LeftFoot  -6.60395 0.326361 -6.9283
LeftToes  1.09107e-011 -1.16422e-010 2.98337e-011
892
root  47.5902 35.2432 25.0241 -172.293 -2.04146 -177.511
RightUpLeg  -4.60264 -3.57028 -1.78846
RightLeg  39.3967 -4.50122 -4.22583
RightFoot  -37.3051 2.75485 13.0141
RightToes  -1.33073e-015 0 -3.6325e-017
Spine  -0.451495 5.19354 8.59295
Spine1  7.70099 6.30939 -6.00484
HEad  -6.01493 19.55 -8.10867
LeftShoulder1  0.602862 0.809651 -17.7707
LeftArm  -24.0992 -19.7927 -33.3077
LeftForeArm  -159.61 -76.0087 -146.608
LeftHand  1.44405 14.1734 19.1587
RightShoulder  1.91271 5.29556 15.5632
RightArm  -11.8104 41.2909 50.5599
RightForeArm  115.71 80.8034 56.695
RightHand  0.717422 -7.04537 -46.2551
LeftUpLeg  -50.2612 -1.35906 5.56313
LeftLeg  37.7866 0.896916 1.12504
LeftFoot  -3.51136 0.494227 -6.90949
LeftToes  1.09107e-011 -1.16422e-010 2.98337e-011
893
root  47.2995 34.6402 23.7818 -172.458 -2.74481 -177.027
RightUpLeg  -2.34389 -3.84095 -1.89568
RightLeg  40.542 -3.95431 -3.89756
RightFoot  -39.3108 3.20662 13.9052
RightToes  -1.33073e-015 0 -3.6325e-017
Spine  -0.797964 5.52697 9.38982
Spine1  8.02078 6.61429 -6.29783
HEad  -7.69387 19.3602 -8.32763
LeftShoulder1  0.167263 2.6085 -17.6312
LeftArm  -25.5505 -16.8888 -30.1984
LeftForeArm  -153.93 -70.7738 -156.602
LeftHand  1.52576 14.3372 19.8176
RightShoulder  1.82385 4.60704 16.4397
RightArm  -13.9029 37.4421 44.4855
RightForeArm  171.031 81.3456 115.717
RightHand  0.559547 -6.6284 -47.5964
LeftUpLeg  -52.2452 -2.27524 5.68165
LeftLeg  44.5362 0.336663 0.76798
LeftFoot  -4.06404 0.38522 -5.67224
LeftToes  1.09107e-011 -1.16422e-010 2.98337e-011
894
root  47.0635 34.1924 22.5817 -172.574 -3.66327 -177.05
RightUpLeg  0.294099 -4.25154 -2.36353
RightLeg  40.5754 -3.61566 -3.59375
RightFoot  -40.5379 3.65779 15.0452
RightToes  -1.33073e-015 0 -3.6325e-017
Spine  -1.84471 5.70527 9.1826
Spine1  8.64431 6.65292 -6.02478
HEad  -8.54268 19.5533 -8.68581
LeftShoulder1  0.00990821 3.26117 -16.8396
LeftArm  -27.9748 -11.3771 -25.8347
LeftForeArm  -157.48 -67.0057 -160.408
LeftHand  1.6652 14.2525 21.6979
RightShoulder  1.69646 3.7286 17.5844
RightArm  -14.2373 34.0032 40.6653
RightForeArm  -165.268 77.4913 141.618
RightHand  0.379671 -6.19206 -48.7384
LeftUpLeg  -53.1707 -3.23315 4.92411
LeftLeg  49.0482 0.00759973 0.455215
LeftFoot  -3.15268 0.0188104 0.00271407
LeftToes  1.09107e-011 -1.16422e-010 2.98337e-011
895
root  46.9095 33.9591 21.5295 -172.528 -4.79523 -177.05
RightUpLeg  2.79266 -3.98606 -2.12423
RightLeg  39.6757 -4.19399 -3.99697
RightFoot  -40.5105 3.99667 16.3412
RightToes  -1.33073e-015 0 -3.6325e-017
Spine  -2.50413 5.7914 8.78918
Spine1  8.12235 6.51642 -5.43648
HEad  -9.11018 20.0473 -9.2235
LeftShoulder1  -0.31041 4.67476 -16.0596
LeftArm  -28.2545 -7.73781 -22.6068
LeftForeArm  -162.156 -65.7845 -161.079
LeftHand  1.65585 13.8248 22.6184
RightShoulder  1.5671 3.04408 18.1767
RightArm  -13.3635 32.3811 39.3174
RightForeArm  -165.792 76.7797 143.691
RightHand  -0.196951 -4.9256 -51.0164
LeftUpLeg  -53.4785 -4.21643 4.67525
LeftLeg  52.5612 0.00741005 0.489702
LeftFoot  -5.78127 0.0169876 0.366852
LeftToes  1.09107e-011 -1.16422e-010 2.98337e-011
